<svg xmlns="http://www.w3.org/2000/svg" width="72" height="72" viewBox="0 0 72 72">
  <path id="logo" d="M33.479,27.059l-8.942,6.879a7.85,7.85,0,0,0-7.568-5.963h-6.42V43.8h6.42a7.655,7.655,0,0,0,7.566-5.963l8.943,6.879,8.943-6.879V43.8H52.51V40.586H45.862V27.975h-3.67v5.961l-8.484,6.881-1.835-1.606L36,36l4.355-3.439L37.836,30.5l-8.484,6.648-1.834-1.605L36,29.121l-2.523-2.062Zm-19.49,4.125h2.752a3.953,3.953,0,0,1,1.648.367,4.431,4.431,0,0,1,1.389,1.01,4.841,4.841,0,0,1,.961,1.525,5.263,5.263,0,0,1,.031,3.73,4.979,4.979,0,0,1-.906,1.537,4.336,4.336,0,0,1-1.379,1.064,3.983,3.983,0,0,1-1.744.4H13.989V31.184Zm49.987,9.4V43.8H53.887V27.975h3.669V40.586h6.42ZM36,0A36,36,0,1,0,72,36,36.21,36.21,0,0,0,36,0Zm0,3.67a32.592,32.592,0,0,1,6.523.654A32.267,32.267,0,0,1,67.676,29.477a32.847,32.847,0,0,1,0,13.047A32.267,32.267,0,0,1,42.523,67.676a32.847,32.847,0,0,1-13.047,0A31.91,31.91,0,0,1,23.4,65.8,32.265,32.265,0,0,1,4.324,42.526a32.842,32.842,0,0,1,0-13.046A32.264,32.264,0,0,1,29.477,4.327,32.584,32.584,0,0,1,36,3.673Z" transform="translate(0 0)" fill="#007db8"/>
</svg>
