<svg xmlns="http://www.w3.org/2000/svg" width="150" height="49.292" viewBox="0 0 150 49.292">
  <g id="logo" transform="translate(-0.744 -0.259)">
    <path id="Path_233" data-name="Path 233" d="M451.055,62.392l3.861,2.574a11.277,11.277,0,0,1-9.433,5.013,11.071,11.071,0,0,1-11.228-11.313c0-6.74,4.843-11.313,10.686-11.313,5.876,0,8.755,4.674,9.687,7.2l.508,1.287L440,62.1a5.737,5.737,0,0,0,5.487,3.421,6.445,6.445,0,0,0,5.572-3.133Zm-11.871-4.081,10.11-4.2a4.39,4.39,0,0,0-4.2-2.4,6.218,6.218,0,0,0-5.91,6.6Z" transform="translate(-304.393 -32.228)" fill="#ff302f"/>
    <path id="Path_234" data-name="Path 234" d="M407.407,4.931h4.877V38.056h-4.877V4.931Z" transform="translate(-286.805 -3.402)" fill="#20b15a"/>
    <path id="Path_235" data-name="Path 235" d="M333.674,48.189h4.708V68.308c0,8.349-4.928,11.787-10.754,11.787A10.775,10.775,0,0,1,317.6,73.406l4.318-1.8a6.27,6.27,0,0,0,5.707,4.031c3.743,0,6.046-2.32,6.046-6.656V67.36H333.5a7.77,7.77,0,0,1-5.961,2.574A11.2,11.2,0,0,1,316.7,58.655c0-6.385,5.182-11.363,10.839-11.363a7.892,7.892,0,0,1,5.961,2.523h.169V48.189Zm.339,10.466c0-4-2.659-6.91-6.046-6.91-3.421,0-6.3,2.913-6.3,6.91a6.49,6.49,0,0,0,6.3,6.808c3.387.017,6.046-2.862,6.046-6.808Z" transform="translate(-221.798 -30.544)" fill="#3686f7"/>
    <path id="Path_236" data-name="Path 236" d="M157.615,58.434A11.313,11.313,0,1,1,146.3,47.1a11.152,11.152,0,0,1,11.313,11.33Zm-4.945,0a6.385,6.385,0,1,0-12.735,0,6.385,6.385,0,1,0,12.735,0Z" transform="translate(-94.209 -32.056)" fill="#ff302f"/>
    <path id="Path_237" data-name="Path 237" d="M248.5,58.667a11.313,11.313,0,1,1-11.313-11.313A11.152,11.152,0,0,1,248.5,58.667Zm-4.962,0a6.385,6.385,0,1,0-12.735,0,6.385,6.385,0,1,0,12.735,0Z" transform="translate(-157.992 -32.228)" fill="#ffba40"/>
    <path id="Path_238" data-name="Path 238" d="M18.645,30.725A12.657,12.657,0,0,1,5.994,17.905,12.657,12.657,0,0,1,18.645,5.085a12.307,12.307,0,0,1,8.688,3.438l3.4-3.4A16.8,16.8,0,0,0,18.645.259,17.9,17.9,0,0,0,.744,17.905a17.9,17.9,0,0,0,17.9,17.646,16.175,16.175,0,0,0,12.312-4.945c3.184-3.184,4.166-7.655,4.166-11.279a19.07,19.07,0,0,0-.288-3.167H18.645v4.708H30.177A10.231,10.231,0,0,1,27.536,27.2a11.733,11.733,0,0,1-8.891,3.523Z" transform="translate(0 0)" fill="#3686f7"/>
  </g>
</svg>
