<svg xmlns="http://www.w3.org/2000/svg" width="150" height="40.538" viewBox="0 0 150 40.538">
  <path id="logo" d="M20.625,37.925c-2.256.4-4.553.515-6.928.831L6.453,17.538v22.13C4.2,39.9,2.138,40.222,0,40.538V0H6.018l8.234,23V0h6.374V37.925ZM33.1,14.846c2.455,0,6.215-.119,8.472-.119v6.334c-2.811,0-6.1,0-8.472.119V30.6c3.721-.237,7.443-.554,11.2-.673v6.1L26.762,37.411V0H44.3V6.334H33.1v8.511ZM67.854,6.334H61.283V35.471c-2.138,0-4.276,0-6.334.079V6.334H48.377V0H67.854V6.334ZM78.147,14.41h8.67v6.334h-8.67V35.115H71.931V0h17.7V6.334H78.147V14.41ZM99.921,29.572c3.6.079,7.245.357,10.768.554v6.255c-5.661-.357-11.322-.712-17.1-.831V0h6.334V29.572Zm16.112,7.245c2.019.119,4.157.238,6.215.475V0h-6.215ZM150,0l-8.037,19.28L150,40.538c-2.376-.317-4.751-.752-7.126-1.148l-4.552-11.718L133.69,38.44c-2.3-.4-4.513-.515-6.809-.832l8.155-18.567L127.672,0h6.809l4.157,10.649L143.072,0H150Z" fill="#d81f26"/>
</svg>
