<svg xmlns="http://www.w3.org/2000/svg" width="150" height="23.399" viewBox="0 0 150 23.399">
  <path id="svg_1" d="M124.139,17.911h-.116L119.091.756h-7.956V22.383h5.27l-.3-17.748h.116l5.3,17.748h7.633V.755h-5.305ZM22.925.755,18.957,22.611h5.791L27.682,2.773H27.8l2.857,19.839h5.757L32.468.755Zm32.395,0-2.647,16.71h-.12L49.918.758H41.175L40.7,22.611h5.36l.134-19.653h.121L49.9,22.611h5.437L58.915,2.964l.119-.006.139,19.653h5.363L64.063.758ZM5.676,6.378a2.844,2.844,0,0,1-.022-1.141,1.78,1.78,0,0,1,1.96-1.472A1.843,1.843,0,0,1,9.6,5.745v1.35h5.353V5.569C14.956.8,10.762.057,7.725.057,3.915.057.8,1.348.23,4.914A7.626,7.626,0,0,0,.282,7.856c.931,4.467,8.546,5.76,9.652,8.585a2.911,2.911,0,0,1,.038,1.623,1.858,1.858,0,0,1-2.087,1.459A1.929,1.929,0,0,1,5.73,17.548l0-2.121H-.021l0,1.69c0,4.875,3.762,6.34,7.792,6.34,3.884,0,7.067-1.339,7.582-4.987a10.882,10.882,0,0,0-.023-3.6C14.419,10.3,6.287,8.943,5.676,6.378Zm69.745.051a2.756,2.756,0,0,1-.026-1.12,1.758,1.758,0,0,1,1.94-1.459A1.824,1.824,0,0,1,79.308,5.8V7.142h5.3V5.63C84.6.92,80.447.179,77.45.179c-3.777,0-6.862,1.262-7.422,4.805A7.444,7.444,0,0,0,70.076,7.9c.922,4.42,8.462,5.7,9.559,8.5A2.97,2.97,0,0,1,79.677,18a1.836,1.836,0,0,1-2.067,1.442,1.9,1.9,0,0,1-2.134-1.95l0-2.1h-5.7v1.675c0,4.825,3.729,6.273,7.719,6.273,3.836,0,6.993-1.327,7.5-4.937a10.809,10.809,0,0,0-.022-3.558C84.07,10.315,76.017,8.97,75.421,6.429Zm24.311,10.49a4.424,4.424,0,0,1-.05.833,2.13,2.13,0,0,1-4.111,0,4.593,4.593,0,0,1-.054-.833V.753H90.1V16.418c-.009.405.031,1.226.05,1.444.368,4.074,3.535,5.39,7.477,5.39s7.1-1.316,7.483-5.39c.019-.218.061-1.04.054-1.444V.753H99.731V16.919Zm42.656-6.595v3.2h2.2v3.17a4.31,4.31,0,0,1-.05.83,2.31,2.31,0,0,1-4.384,0,4.684,4.684,0,0,1-.048-.83v-10a4.984,4.984,0,0,1,.087-1.026,1.988,1.988,0,0,1,2.134-1.586,1.965,1.965,0,0,1,2.143,1.586,5.553,5.553,0,0,1,.067.824V7.724h5.4v-.73s.019-.747-.044-1.429c-.4-4.11-3.728-5.4-7.525-5.4s-7.051,1.3-7.522,5.4a14.258,14.258,0,0,0-.094,1.429l0,9.2c0,.412.015.716.074,1.444.353,3.979,3.745,5.405,7.539,5.405s7.188-1.426,7.544-5.405c.059-.729.067-1.033.068-1.444V10.324Z" transform="translate(0.024 -0.057)" fill="#1428a0"/>
</svg>
